<svg width="867" height="504" viewBox="0 0 867 504" fill="none" xmlns="http://www.w3.org/2000/svg">
<g clip-path="url(#clip0_5_603)">
<path d="M433.043 865.043C671.631 865.043 865.043 671.63 865.043 433.043C865.043 194.456 671.631 1.04346 433.043 1.04346C194.456 1.04346 1.04349 194.456 1.04349 433.043C1.04349 671.63 194.456 865.043 433.043 865.043Z" stroke="#A59B85" stroke-opacity="0.3" stroke-width="2.08696" stroke-dasharray="10.43 10.43"/>
<path d="M432.631 786.828C628.248 786.828 786.828 628.249 786.828 432.632C786.828 237.015 628.248 78.436 432.631 78.436C237.014 78.436 78.4351 237.015 78.4351 432.632C78.4351 628.249 237.014 786.828 432.631 786.828Z" fill="#13E0B2" fill-opacity="0.1"/>
<path d="M433.043 713.346C587.85 713.346 713.345 587.85 713.345 433.044C713.345 278.238 587.85 152.743 433.043 152.743C278.237 152.743 152.742 278.238 152.742 433.044C152.742 587.85 278.237 713.346 433.043 713.346Z" fill="#D2CDC2" fill-opacity="0.9"/>
</g>
<defs>
<clipPath id="clip0_5_603">
<rect width="866.087" height="504" fill="white"/>
</clipPath>
</defs>
</svg>
